<svg xmlns="http://www.w3.org/2000/svg" width="40" height="40" viewBox="0 0 40 40">
    <g fill="none" fill-rule="evenodd">
        <path fill="#FABE7D" d="M13.061 31.723l-.26.435.011.03-.919 1.47c-.41.674-.718 1.165-.921 1.475l-1.263 2.02A19.907 19.907 0 0 0 20 40c11.046 0 20-8.954 20-20S31.046 0 20 0 0 8.954 0 20a19.935 19.935 0 0 0 5.701 13.984l1.279-1.33c-1.001-.914-1.77-1.775-2.275-2.537a18.272 18.272 0 0 1-2.76-6.933c-1.758-9.972 4.9-19.48 14.871-21.239 9.972-1.758 19.48 4.9 21.239 14.871 1.758 9.972-4.9 19.48-14.871 21.239-3.23.57-6.912.09-11.043-1.438l2.5-4.138c.117.014.237.021.359.021 1.389 0 2.5-.943 2.5-2.123V9.623c0-1.18-1.111-2.123-2.5-2.123s-2.5.943-2.5 2.123v20.755c0 .512.21.98.561 1.345zm9.439-9.365v8.02c0 1.179 1.111 2.122 2.5 2.122s2.5-.943 2.5-2.123V9.623c0-1.18-1.111-2.123-2.5-2.123s-2.5.943-2.5 2.123v12.735z"/>
    </g>
</svg>
