<svg xmlns="http://www.w3.org/2000/svg" width="64" height="64" viewBox="0 0 64 64">
    <g fill="none" fill-rule="evenodd">
        <circle cx="32" cy="32" r="32"/>
        <path fill="#75DF00" d="M4.76 48.802l1.943-1.943A29.235 29.235 0 0 1 2.667 32C2.667 15.8 15.8 2.667 32 2.667S61.333 15.8 61.333 32 48.2 61.333 32 61.333a29.235 29.235 0 0 1-20.29-8.148c-.093-.09 2.67-3.254 8.29-9.493l-2-2a694.516 694.516 0 0 1-6.026 6.951l.026.024-.58.6c-1.106 1.24-1.678 1.84-1.716 1.795a28.216 28.216 0 0 1-.008-.01l-1.86 1.927C13.703 59.731 22.353 64 32 64c17.673 0 32-14.327 32-32C64 14.327 49.673 0 32 0 14.327 0 0 14.327 0 32a31.896 31.896 0 0 0 4.76 16.802z"/>
        <path fill="#75DF00" fill-rule="nonzero" d="M17.498 19.017h19.82c2.926-.225 4.83 1.766 4.663 4.543v1.135l8.161-3.406s1.166-1.136 2.332 0v19.304c0 .347-.048.497 0 1.136-.38.306-1.237.655-2.332 0l-8.16-3.407v2.271c0 3.014-1.826 3.362-4.669 3.402l.005.005H18.664C15.917 44 14 42.04 14 39.458V23.56c0-2.338 1.485-4.15 3.498-4.543z"/>
    </g>
</svg>
