<svg xmlns="http://www.w3.org/2000/svg" width="240" height="240" viewBox="0 0 240 240">
    <g fill="none" fill-rule="evenodd" transform="translate(0 20)">
        <path fill="#FFF" d="M0 173c0 3.802 3.16 7 7 7h225c4.84 0 8-3.198 8-7 0-29.984-10.884-43-40-43H40c-29.116 0-40 13.016-40 43zm230-64c0 4.855-3.238 8-7 8H20c-3.762 0-7-3.145-7-8 0-52.697 37.86-91.022 102-93v-1H95c-.825-.949-2.433-2.536-2-5V3c-.433-1.443 1.187-3 2-3h53c.825 0 2.433 1.587 2 3v7c.433 2.494-1.187 4.051-2 5h-20v1c64.14 1.978 102 40.303 102 93z"/>
    </g>
</svg>
