<svg xmlns="http://www.w3.org/2000/svg" width="68" height="68" viewBox="0 0 68 68">
    <g fill="none" fill-rule="evenodd">
        <path fill="#e16950" d="M65.49,36.13h-9.3a10.1,10.1,0,0,0-2.75-4.92q-.29-.26-.6-.49c-.29-.21-.45-.32-.61-.42L52,30.17a8.18,8.18,0,0,0-.75-.39q-.39-.18-.8-.33A18.49,18.49,0,0,0,48,28.8a55.51,55.51,0,0,0-5.68-.88l-1.76-.15-.7,0-1-.06-1.15,0-.51,0-1.37,0H32.15l-1.37,0-.51,0-1.14,0-1,.06-.7,0-1.58.14A55.85,55.85,0,0,0,20,28.8a18.44,18.44,0,0,0-2.42.65l-.6.24-.58.27-.39.21-.21.13-.47.32a8.44,8.44,0,0,0-.74.6,10.84,10.84,0,0,0-3,6.26v2.07a.9.9,0,0,0,.9.9h9.87a.9.9,0,0,0,.9-.9V37.47a3.69,3.69,0,0,1,.37-.84c.74-1.1,2.2-1.33,5-1.55l.34,0c1.69-.11,5.08-.23,5.08-.23s3.39.12,5.08.23l.34,0c2.79.21,4.24.45,5,1.55a3.74,3.74,0,0,1,.37.84v2.07a.9.9,0,0,0,.9.9h9.87a.9.9,0,0,0,.9-.9V38.36c0-.34.14-.21.14-.36h8.91A31.65,31.65,0,1,1,34,2.43,31.6,31.6,0,0,1,65.53,32.7H68C67.31,15.1,51.79,0,34,0,15.84,0,0,15.8,0,34S15.84,68,34,68C51.52,68,66.9,53.33,68,36.13Z"/>
    </g>
</svg>