<svg xmlns="http://www.w3.org/2000/svg" width="68" height="68" viewBox="0 0 68 68">
    <g fill="none" fill-rule="evenodd">
        <path fill="#fabe7d" d="M65.49,36.13H53V38H65.49A31.65,31.65,0,1,1,34,2.43,31.6,31.6,0,0,1,65.53,32.7H68C67.31,15.1,51.79,0,34,0,15.84,0,0,15.8,0,34S15.84,68,34,68C51.52,68,66.9,53.33,68,36.13Z"/>
        <path fill="#fabe7d" d="M16,27V41a3.87,3.87,0,0,0,4,4H40L19,23A3.9,3.9,0,0,0,16,27Zm36-2c.14-.4-.31-.44-1,0l-7,3V27a3.55,3.55,0,0,0-4-4H26l-7-8-2,2L51,53l1-2-8-9c.1,0,.14-.35,0-1V40l7,3a1.67,1.67,0,0,0,2,0,8,8,0,0,1,0-1V26C53,25.52,52.8,25.13,52,25Z"/>
    </g>
</svg>