<svg xmlns="http://www.w3.org/2000/svg" width="16" height="12" viewBox="0 0 16 12">
    <path fill="#45B5F2" fill-rule="nonzero" d="M16 5.613s-3.04 5.588-8 5.588c-1.28 0-2.4-.357-3.413-.919l1.306-1.25c.614.357 1.334.536 2.107.536 2.293 0 4.16-1.786 4.16-3.98 0-.74-.213-1.404-.56-2.016l1.547-1.48C14.96 3.725 16 5.613 16 5.613zm-10.48 0c0 .28.053.562.16.817l3.173-3.037A2.402 2.402 0 0 0 8 3.24c-1.36 0-2.48 1.072-2.48 2.373zm-1.68 0c0-2.194 1.867-3.98 4.16-3.98.773 0 1.467.204 2.107.536l1.306-1.25C10.427.383 9.28 0 8 0 3.04.026 0 5.613 0 5.613s1.04 1.888 2.88 3.47l1.547-1.48a3.65 3.65 0 0 1-.587-1.99zm6.64 0c0-.28-.053-.561-.16-.816L7.147 7.833c.266.102.56.153.853.153 1.36 0 2.48-1.072 2.48-2.373zm2.722-5.6L1.994 10.68l.686.608L13.887.622l-.685-.608z"/>
</svg>
