<svg xmlns="http://www.w3.org/2000/svg" width="57" height="57" viewBox="0 0 57 57">
    <g fill="#FFFFFF" fill-rule="evenodd" transform="translate(-5 0)">
        <path d="M39.266 4.095a4.085 4.085 0 1 1-8.17 0 4.085 4.085 0 0 1 8.17 0M45.044 56.591h-20.42c-5.254 0-9.53-4.276-9.53-9.531V33.443c0-5.256 4.276-9.532 9.53-9.532a2.723 2.723 0 1 1 0 5.447 4.09 4.09 0 0 0-4.084 4.085V47.06a4.09 4.09 0 0 0 4.084 4.084h20.42a4.089 4.089 0 0 0 4.083-4.084V33.443a4.089 4.089 0 0 0-4.083-4.085 2.723 2.723 0 0 1 0-5.447c5.255 0 9.529 4.276 9.529 9.532V47.06c0 5.255-4.274 9.531-9.53 9.531"/>
        <path d="M35.181 11.769h-6.806a2.723 2.723 0 0 0 0 5.446h4.084v25.471a2.723 2.723 0 0 0 5.445 0V14.492a2.723 2.723 0 0 0-2.723-2.723"/>
    </g>
</svg>
