<svg xmlns="http://www.w3.org/2000/svg" width="12" height="16" viewBox="0 0 12 16">
    <g fill="#0481C8" fill-rule="nonzero">
        <path d="M6.706 11.535a.34.34 0 0 0 .247.112.34.34 0 0 0 .247-.112l3.106-3.275a.373.373 0 0 0 0-.52L7.2 4.465a.33.33 0 0 0-.494 0 .373.373 0 0 0 0 .521l2.506 2.642h-5.86A.364.364 0 0 0 3 8c0 .205.159.372.353.372h5.859l-2.506 2.642a.373.373 0 0 0 0 .52z"/>
        <path d="M11.647 5.21A.364.364 0 0 0 12 4.836V2.102C12 .95 11.1 0 10.006 0H1.994C.9 0 0 .949 0 2.102v11.796C0 15.05.9 16 1.994 16h8.012C11.1 16 12 15.051 12 13.898v-2.735a.364.364 0 0 0-.353-.372.364.364 0 0 0-.353.372v2.735c0 .744-.582 1.358-1.288 1.358H1.994c-.706 0-1.288-.614-1.288-1.358V2.102c0-.744.582-1.358 1.288-1.358h8.012c.706 0 1.288.614 1.288 1.358v2.735c0 .205.159.372.353.372z"/>
    </g>
</svg>
