<svg xmlns="http://www.w3.org/2000/svg" width="70" height="72" viewBox="0 0 70 72">
    <g fill="#FFFFFF" fill-rule="evenodd">
        <path d="M45.044 71.569h-20.42C11.114 71.569.12 60.574.12 47.059V33.444c0-13.515 10.992-24.51 24.503-24.51h20.42c13.511 0 24.503 10.995 24.503 24.51V47.06c0 13.514-10.992 24.509-24.503 24.509m-20.42-59.912c-12.01 0-21.781 9.773-21.781 21.786V47.06c0 12.013 9.771 21.786 21.78 21.786h20.42c12.01 0 21.782-9.773 21.782-21.786V33.443c0-12.013-9.772-21.786-21.781-21.786h-20.42" opacity=".05"/>
        <path d="M44.87 60.676H24.453c-7.507 0-13.613-6.108-13.613-13.616V33.443c0-7.508 6.106-13.616 13.613-13.616h6.838v2.723h-6.838c-6.005 0-10.891 4.887-10.891 10.893V47.06c0 6.006 4.886 10.892 10.89 10.892h20.42c6.005 0 10.89-4.886 10.89-10.892V33.443c0-6.006-4.885-10.893-10.89-10.893h-5.778v-2.723h5.778c7.507 0 13.612 6.108 13.612 13.616V47.06c0 7.508-6.105 13.616-13.612 13.616" opacity=".25"/>
        <path d="M45.044 66.122h-20.42c-10.508 0-19.057-8.55-19.057-19.062V33.443c0-10.511 8.55-19.063 19.057-19.063h1.035c-.002.038-.007.074-.007.112 0 1.237.826 2.28 1.954 2.612h-2.982c-9.007 0-16.336 7.33-16.336 16.34V47.06c0 9.01 7.33 16.339 16.336 16.339h20.42c9.008 0 16.335-7.33 16.335-16.34V33.444c0-9.01-7.327-16.34-16.335-16.34h-5.952V14.38h5.952c10.508 0 19.058 8.552 19.058 19.063V47.06c0 10.511-8.55 19.062-19.058 19.062" opacity=".15"/>
        <path d="M39.266 4.095a4.085 4.085 0 1 1-8.17 0 4.085 4.085 0 0 1 8.17 0M45.044 56.591h-20.42c-5.254 0-9.53-4.276-9.53-9.531V33.443c0-5.256 4.276-9.532 9.53-9.532a2.723 2.723 0 1 1 0 5.447 4.09 4.09 0 0 0-4.084 4.085V47.06a4.09 4.09 0 0 0 4.084 4.084h20.42a4.089 4.089 0 0 0 4.083-4.084V33.443a4.089 4.089 0 0 0-4.083-4.085 2.723 2.723 0 0 1 0-5.447c5.255 0 9.529 4.276 9.529 9.532V47.06c0 5.255-4.274 9.531-9.53 9.531"/>
        <path d="M35.181 11.769h-6.806a2.723 2.723 0 0 0 0 5.446h4.084v25.471a2.723 2.723 0 0 0 5.445 0V14.492a2.723 2.723 0 0 0-2.723-2.723"/>
    </g>
</svg>
