<svg xmlns="http://www.w3.org/2000/svg" width="207" height="40" viewBox="0 0 207 40">
    <g fill="none" fill-rule="evenodd">
        <path fill="#8B8B8B" d="M108.104 30.756c0 1.984-1.615 3.6-3.6 3.6H86.51a3.604 3.604 0 0 1-3.6-3.6V18.758a3.603 3.603 0 0 1 3.6-3.6h17.996a3.604 3.604 0 0 1 3.599 3.6v11.998zm-3.6-20.396H86.51c-4.631 0-8.398 3.767-8.398 8.398v11.998c0 4.63 3.767 8.397 8.398 8.397h17.996c4.63 0 8.398-3.766 8.398-8.397V18.758c0-4.631-3.767-8.398-8.398-8.398zM47.35 15.16h24.063a2.4 2.4 0 1 0 0-4.8H47.35c-4.63 0-8.398 3.767-8.398 8.398v11.998c0 4.631 3.767 8.397 8.398 8.397h23.926a2.399 2.399 0 1 0 0-4.798H47.35a3.604 3.604 0 0 1-3.599-3.599V18.758a3.603 3.603 0 0 1 3.6-3.599M8.398 15.16h24.063a2.4 2.4 0 1 0 0-4.8H8.398C3.768 10.36 0 14.127 0 18.758c0 4.63 3.767 8.398 8.398 8.398h18.065a3.604 3.604 0 0 1 3.6 3.6 3.604 3.604 0 0 1-3.6 3.6H2.4a2.4 2.4 0 0 0 0 4.797h24.064c4.63 0 8.398-3.766 8.398-8.397 0-4.63-3.768-8.399-8.398-8.399H8.398A3.604 3.604 0 0 1 4.8 18.758a3.603 3.603 0 0 1 3.6-3.599M147.73 10.36h-29.994a2.399 2.399 0 1 0 0 4.8h12.632v21.594a2.4 2.4 0 0 0 4.8 0V15.16h12.562a2.4 2.4 0 0 0 0-4.799M187.09 10.36h-29.993a2.4 2.4 0 1 0 0 4.8h12.632v21.594a2.399 2.399 0 1 0 4.798 0V15.16h12.563a2.4 2.4 0 0 0 0-4.799M202.471 0a3.6 3.6 0 1 0 0 7.2 3.6 3.6 0 0 0 0-7.2"/>
        <g transform="translate(194 10)">
            <path fill="#8B8B8B" d="M8.471.36H2.472a2.399 2.399 0 1 0 0 4.8h3.6V27.6a2.4 2.4 0 1 0 4.798 0V2.76A2.399 2.399 0 0 0 8.471.36" mask="url(#b)"/>
        </g>
    </g>
</svg>
