<svg xmlns="http://www.w3.org/2000/svg" width="64" height="64" viewBox="0 0 64 64">
    <g fill="none" fill-rule="evenodd">
        <path fill="#009BF5" fill-rule="nonzero" d="M59.634 34h.734H48v1.765h13.634C59.95 50.559 47.237 61.708 32 61.708 15.619 61.708 2.292 48.381 2.292 32S15.619 2.291 32 2.291c15.97 0 29.032 12.669 29.677 28.484H64C64 14 50.358 0 32.033 0S0 14 0 32s13.708 32 32.033 32C49.155 64 63 51 64 34h-4.366z"/>
        <path fill="#009BF5" fill-rule="nonzero" d="M52 32.377a3.382 3.382 0 0 1-3.396 3.397H35.019v12.83A3.382 3.382 0 0 1 31.623 52a3.382 3.382 0 0 1-3.397-3.396v-12.83h-12.83A3.382 3.382 0 0 1 12 32.377a3.382 3.382 0 0 1 3.396-3.396h12.83V15.396A3.382 3.382 0 0 1 31.623 12a3.382 3.382 0 0 1 3.396 3.396v13.585h13.585A3.382 3.382 0 0 1 52 32.377z"/>
    </g>
</svg>
