<svg xmlns="http://www.w3.org/2000/svg" viewBox="0 0 68 68">
    <g fill="none" fill-rule="evenodd">
        <path fill="#37aa69" d="M65.49,36.13H53V38H65.49A31.65,31.65,0,1,1,34,2.43,31.6,31.6,0,0,1,65.53,32.7H68C67.31,15.1,51.79,0,34,0,15.84,0,0,15.8,0,34S15.84,68,34,68C51.52,68,66.9,53.33,68,36.13Z"/>
        <path fill="#37aa69" d="M23,23H40a3.55,3.55,0,0,1,4,4v1l7-3a1.39,1.39,0,0,1,2,0V42a8,8,0,0,0,0,1,1.67,1.67,0,0,1-2,0l-7-3v2c0,2.65-1.57,3-4,3H24a3.87,3.87,0,0,1-4-4V27A3.9,3.9,0,0,1,23,23Z"/>
    </g>
</svg>