<svg xmlns="http://www.w3.org/2000/svg" width="40" height="40" viewBox="0 0 40 40">
    <path fill="#0481C8" fill-rule="nonzero" d="M38.205 11.718C33.638 1.68 21.756-2.772 11.718 1.794 1.679 6.362-2.772 18.244 1.795 28.283a19.889 19.889 0 0 0 4.388 6.172l.615-.615.534-.534 3.084-3.084.005-.005c1.215.915 2.868.791 3.812-.293l9.269-10.651a5.264 5.264 0 0 0 5.79-1.117 5.26 5.26 0 0 0 1.276-5.362l-3.32 3.319-3.36-3.361 3.319-3.32a5.26 5.26 0 0 0-6.479 7.067l-10.65 9.268c-1.088.947-1.21 2.607-.287 3.823L6.17 33.213a19.01 19.01 0 0 1-3.583-5.29c-4.368-9.602-.11-20.968 9.492-25.337 9.602-4.368 20.968-.11 25.336 9.492 4.368 9.602.11 20.968-9.491 25.337-6.636 3.019-14.112 1.916-19.54-2.22l-.62.618c5.683 4.383 13.545 5.566 20.52 2.393 10.038-4.567 14.49-16.45 9.922-26.488zM11.136 27.071a1.268 1.268 0 1 1 1.793 1.793 1.268 1.268 0 0 1-1.793-1.793z"/>
</svg>
