<svg xmlns="http://www.w3.org/2000/svg" width="40" height="40" viewBox="0 0 40 40">
    <g fill="none" fill-rule="evenodd">
        <path fill="#0481C8" fill-rule="nonzero" d="M38.205 11.718C33.638 1.68 21.756-2.772 11.718 1.794 1.679 6.362-2.772 18.244 1.795 28.283a19.889 19.889 0 0 0 4.388 6.172l.615-.615.534-.534 3.084-3.084c1.22.91-1.548-1.848-.625-.632L6.17 33.213a19.01 19.01 0 0 1-3.583-5.29c-4.368-9.602-.11-20.968 9.492-25.337 9.602-4.368 20.968-.11 25.336 9.492 4.368 9.602.11 20.968-9.491 25.337-6.636 3.019-14.112 1.916-19.54-2.22l-.62.618c5.683 4.383 13.545 5.566 20.52 2.393 10.038-4.567 14.49-16.45 9.922-26.488z"/>
        <path fill="#0481C8" d="M15 6h10v6h-1v11h1v3h-9V14h-1V6zm3 2a1 1 0 0 0-1 1v3h1v7h4v-9h1V9a1 1 0 0 0-1-1h-4z"/>
        <path fill="#0481C8" d="M22 10h10v20H22V10zm3 2a1 1 0 0 0-1 1v9a1 1 0 0 0 1 1h4a1 1 0 0 0 1-1v-9a1 1 0 0 0-1-1h-4zM8 12h10v20H8V12zm3 2a1 1 0 0 0-1 1v9a1 1 0 0 0 1 1h4a1 1 0 0 0 1-1v-9a1 1 0 0 0-1-1h-4z"/>
    </g>
</svg>
