<svg xmlns="http://www.w3.org/2000/svg" width="40" height="40" viewBox="0 0 40 40">
    <path fill="#45B5F2" fill-rule="nonzero" d="M20 0C8.972 0 0 8.972 0 20s8.972 20 20 20c4.168 0 8.042-1.284 11.249-3.473v-9.205c1.155-.704 1.948-2.133 1.948-3.789 0-2.294-1.518-4.16-3.418-4.253l-.043-2.134c-.45-4.967-4.636-8.873-9.718-8.873-5.118 0-9.304 3.906-9.754 8.872l-.043 2.135c-1.9.093-3.418 1.959-3.418 4.253s1.518 4.16 3.418 4.253l.925.01v-1.078c0-.057 2.27 2.272 6.808 6.99H19v-1.31h-1.046c-4.539-5.02-6.808-7.55-6.808-7.588v-6.776A8.871 8.871 0 0 1 20 9.164a8.872 8.872 0 0 1 8.855 8.87v9.762h.889c.234-.02.428-.052.617-.1v8.371A19.003 19.003 0 0 1 20 39.131C9.45 39.13.87 30.548.87 20S9.452.87 20 .87C30.548.87 39.13 9.451 39.13 20c0 5.371-2.228 10.229-5.804 13.707v1.19C37.419 31.234 40 25.914 40 20 40 8.972 31.028 0 20 0z"/>
</svg>
