<svg xmlns="http://www.w3.org/2000/svg" width="16" height="12" viewBox="0 0 16 12">
    <path fill="#45B5F2" fill-rule="evenodd" d="M8.017 0c1.797 0 3.417.556 4.861 1.669C14.323 2.78 15.363 4.225 16 6c-.637 1.775-1.677 3.219-3.122 4.331C11.434 11.444 9.814 12 8.018 12c-1.798 0-3.424-.556-4.88-1.669C1.684 9.22.638 7.775 0 6c.637-1.775 1.683-3.219 3.139-4.331C4.594.556 6.22 0 8.017 0zm0 10.012c1 0 1.854-.393 2.559-1.18C11.28 8.043 11.633 7.1 11.633 6c0-1.1-.352-2.044-1.057-2.831-.705-.788-1.558-1.181-2.559-1.181-1 0-1.86.393-2.576 1.18C4.725 3.957 4.367 4.9 4.367 6c0 1.1.358 2.044 1.074 2.831.717.788 1.575 1.181 2.576 1.181zM8 3.6c.603 0 1.12.231 1.552.694.432.462.648 1.031.648 1.706s-.216 1.244-.648 1.706C9.12 8.17 8.602 8.4 8 8.4c-.603 0-1.114-.231-1.535-.694-.42-.462-.631-1.031-.631-1.706s.21-1.244.63-1.706C6.887 3.83 7.398 3.6 8 3.6z"/>
</svg>
